<svg width="22" height="15" viewBox="0 0 22 15" fill="none" xmlns="http://www.w3.org/2000/svg">
<path d="M15.6699 8.2052C17.0399 9.041 17.9999 10.1734 17.9999 11.6832V14.3793H21.9998V11.6832C21.9998 9.72401 18.4299 8.56468 15.6699 8.2052ZM13.9999 7.18966C16.2099 7.18966 17.9999 5.58097 17.9999 3.59483C17.9999 1.60869 16.2099 0 13.9999 0C13.5299 0 13.0899 0.0898705 12.6699 0.21569C13.5304 1.17211 13.9999 2.36486 13.9999 3.59483C13.9999 4.8248 13.5304 6.01755 12.6699 6.97397C13.0899 7.09979 13.5299 7.18966 13.9999 7.18966ZM7.99994 7.18966C10.2099 7.18966 11.9999 5.58097 11.9999 3.59483C11.9999 1.60869 10.2099 0 7.99994 0C5.78995 0 3.99997 1.60869 3.99997 3.59483C3.99997 5.58097 5.78995 7.18966 7.99994 7.18966ZM7.99994 1.79741C9.09993 1.79741 9.99992 2.60625 9.99992 3.59483C9.99992 4.58341 9.09993 5.39224 7.99994 5.39224C6.89994 5.39224 5.99995 4.58341 5.99995 3.59483C5.99995 2.60625 6.89994 1.79741 7.99994 1.79741ZM7.99994 8.08837C5.32996 8.08837 0 9.29263 0 11.6832V14.3793H15.9999V11.6832C15.9999 9.29263 10.6699 8.08837 7.99994 8.08837ZM13.9999 12.5819H1.99998V11.6922C2.19998 11.0451 5.29996 9.88578 7.99994 9.88578C10.6999 9.88578 13.7999 11.0451 13.9999 11.6832V12.5819Z" fill="#7BBCB0"/>
</svg>
