<svg width="15" height="15" viewBox="0 0 15 15" fill="none" xmlns="http://www.w3.org/2000/svg">
<path d="M3.12502 5.20837H4.7917V6.69386H3.12502V5.20837ZM3.12502 8.17935H4.7917V9.66483H3.12502V8.17935ZM6.45838 5.20837H8.12506V6.69386H6.45838V5.20837ZM6.45838 8.17935H8.12506V9.66483H6.45838V8.17935ZM9.79173 5.20837H11.4584V6.69386H9.79173V5.20837ZM9.79173 8.17935H11.4584V9.66483H9.79173V8.17935Z" fill="#7BBCB0"/>
<path d="M1.66668 14.8549H13.3334C14.2526 14.8549 15.0001 14.1886 15.0001 13.3694V2.97098C15.0001 2.15173 14.2526 1.48549 13.3334 1.48549H11.6667V0H10.0001V1.48549H5.00003V0H3.33336V1.48549H1.66668C0.747505 1.48549 0 2.15173 0 2.97098V13.3694C0 14.1886 0.747505 14.8549 1.66668 14.8549ZM13.3334 4.45647L13.3343 13.3694H1.66668V4.45647H13.3334Z" fill="#7BBCB0"/>
</svg>
