<svg width="106" height="333" viewBox="0 0 106 333" fill="none" xmlns="http://www.w3.org/2000/svg">
<circle cx="25" cy="307.286" r="25" fill="white" fill-opacity="0.2"/>
<circle cx="25" cy="307.286" r="24.5" stroke="white" stroke-opacity="0.2"/>
<path d="M33.5645 2.92243C33.2852 2.35054 32.8825 1.8323 32.379 1.39673C31.875 0.95985 31.2808 0.612671 30.6288 0.374067C29.9526 0.125668 29.2274 -0.0014774 28.4952 1.29516e-05C27.468 1.29516e-05 26.4658 0.248768 25.5948 0.718639C25.3865 0.83104 25.1886 0.954496 25.001 1.08901C24.8135 0.954496 24.6156 0.83104 24.4072 0.718639C23.5363 0.248768 22.5341 1.29516e-05 21.5069 1.29516e-05C20.7672 1.29516e-05 20.0505 0.125312 19.3733 0.374067C18.7191 0.613609 18.1294 0.958181 17.6231 1.39673C17.1189 1.83181 16.7161 2.35017 16.4376 2.92243C16.1479 3.5176 16 4.14962 16 4.80007C16 5.41366 16.1417 6.05306 16.423 6.7035C16.6584 7.24708 16.9959 7.81093 17.4272 8.3803C18.1107 9.28135 19.0503 10.2211 20.2171 11.1737C22.1507 12.7529 24.0655 13.8437 24.1468 13.8879L24.6406 14.168C24.8593 14.2915 25.1406 14.2915 25.3594 14.168L25.8532 13.8879C25.9345 13.8419 27.8472 12.7529 29.7828 11.1737C30.9496 10.2211 31.8893 9.28135 32.5727 8.3803C33.004 7.81093 33.3437 7.24708 33.577 6.7035C33.8583 6.05306 34 5.41366 34 4.80007C34.0021 4.14962 33.8541 3.5176 33.5645 2.92243Z" fill="white"/>
<circle cx="81" cy="307.286" r="25" fill="white" fill-opacity="0.2"/>
<circle cx="81" cy="307.286" r="24.5" stroke="white" stroke-opacity="0.2"/>
<path d="M82.273 3.96938V0L87.1165 4.31697L91 7.77826L87.0476 10.714L82.273 14.2606V10.3765C73.8907 9.81339 70.954 14.1368 70.954 14.1368C70.954 11.4431 71.203 8.6477 73.5789 6.53095C76.3408 4.06843 80.3405 3.89417 82.273 3.96938Z" fill="white"/>
</svg>
