<svg width="11" height="13" viewBox="0 0 11 13" fill="none" xmlns="http://www.w3.org/2000/svg">
<path d="M5.50001 0C4.04184 0.00153322 2.6439 0.518493 1.61282 1.43748C0.581741 2.35647 0.00172609 3.60244 5.85144e-06 4.90208C-0.00174059 5.96415 0.387496 6.9974 1.10801 7.84333C1.10801 7.84333 1.25801 8.01936 1.28251 8.04476L5.50001 12.478L9.71951 8.04253C9.74151 8.01891 9.89201 7.84333 9.89201 7.84333L9.89251 7.84199C10.6127 6.99643 11.0017 5.96366 11 4.90208C10.9983 3.60244 10.4183 2.35647 9.38719 1.43748C8.35612 0.518493 6.95817 0.00153322 5.50001 0ZM5.50001 6.68465C5.10444 6.68465 4.71776 6.58011 4.38887 6.38424C4.05997 6.18836 3.80362 5.90996 3.65225 5.58424C3.50087 5.25852 3.46126 4.9001 3.53844 4.55432C3.61561 4.20853 3.80609 3.89091 4.08579 3.64161C4.3655 3.39231 4.72186 3.22254 5.10983 3.15376C5.49779 3.08498 5.89992 3.12028 6.26537 3.2552C6.63082 3.39011 6.94318 3.61859 7.16294 3.91173C7.38271 4.20488 7.50001 4.54952 7.50001 4.90208C7.49934 5.37467 7.28842 5.82773 6.91349 6.1619C6.53856 6.49607 6.03024 6.68406 5.50001 6.68465Z" fill="white"/>
</svg>
