<svg width="13" height="15" viewBox="0 0 13 15" fill="none" xmlns="http://www.w3.org/2000/svg">
<path d="M6.50008 0C4.77678 0.00181201 3.12464 0.612772 1.90608 1.69886C0.68752 2.78494 0.00203994 4.25747 6.91542e-06 5.79343C-0.00205709 7.04862 0.457955 8.26975 1.30948 9.26949C1.30948 9.26949 1.48675 9.47753 1.51571 9.50755L6.50008 14.7469L11.4868 9.50491C11.5128 9.477 11.6907 9.26949 11.6907 9.26949L11.6913 9.26791C12.5424 8.2686 13.0022 7.04804 13.0002 5.79343C12.9981 4.25747 12.3126 2.78494 11.0941 1.69886C9.87552 0.612772 8.22338 0.00181201 6.50008 0ZM6.50008 7.90013C6.03259 7.90013 5.5756 7.77658 5.1869 7.54509C4.7982 7.3136 4.49524 6.98458 4.31634 6.59963C4.13744 6.21468 4.09063 5.79109 4.18183 5.38243C4.27304 4.97377 4.49815 4.5984 4.82872 4.30377C5.15928 4.00914 5.58045 3.8085 6.03895 3.72721C6.49746 3.64592 6.97271 3.68764 7.40461 3.84709C7.83652 4.00654 8.20567 4.27656 8.46539 4.62301C8.72512 4.96946 8.86374 5.37676 8.86374 5.79343C8.86296 6.35195 8.61368 6.88739 8.17058 7.28232C7.72747 7.67726 7.12672 7.89944 6.50008 7.90013Z" fill="#7BBCB0"/>
</svg>
