<svg width="303" height="77" viewBox="0 0 303 77" fill="none" xmlns="http://www.w3.org/2000/svg">
<g filter="url(#filter0_d_37_544)">
<path d="M50.0826 51.1799C50.0826 65.0098 38.8713 76.2212 25.0413 76.2212C11.2114 76.2212 0 65.0098 0 51.1799C0 37.35 11.2114 26.1386 25.0413 26.1386C38.8713 26.1386 50.0826 37.35 50.0826 51.1799Z" fill="white"/>
<path d="M49.5818 51.1799C49.5818 64.7332 38.5947 75.7204 25.0413 75.7204C11.488 75.7204 0.500826 64.7332 0.500826 51.1799C0.500826 37.6266 11.488 26.6394 25.0413 26.6394C38.5947 26.6394 49.5818 37.6266 49.5818 51.1799Z" stroke="#FFDA32"/>
</g>
<path fill-rule="evenodd" clip-rule="evenodd" d="M242.918 0.191645C242.986 0.252241 243.041 0.324225 243.077 0.403477C243.114 0.482728 243.133 0.567688 243.133 0.653491C243.133 0.739295 243.114 0.824255 243.077 0.903506C243.041 0.982758 242.986 1.05474 242.918 1.11534L234.652 8.48139L242.918 15.8475C243.056 15.9699 243.133 16.1361 243.133 16.3093C243.133 16.4825 243.056 16.6487 242.918 16.7711C242.781 16.8936 242.594 16.9624 242.4 16.9624C242.206 16.9624 242.019 16.8936 241.882 16.7711L233.099 8.94324C233.031 8.88264 232.977 8.81066 232.94 8.73141C232.903 8.65216 232.884 8.5672 232.884 8.48139C232.884 8.39559 232.903 8.31063 232.94 8.23138C232.977 8.15213 233.031 8.08014 233.099 8.01955L241.882 0.191645C241.95 0.130896 242.031 0.0826989 242.12 0.0498133C242.209 0.0169277 242.304 0 242.4 0C242.496 0 242.592 0.0169277 242.681 0.0498133C242.77 0.0826989 242.85 0.130896 242.918 0.191645Z" fill="#1C2B38"/>
<g filter="url(#filter1_d_37_544)">
<path d="M55.8348 51.6807C55.8348 65.5107 67.0462 76.722 80.8761 76.722C94.7061 76.722 105.917 65.5107 105.917 51.6807C105.917 37.8508 94.7061 26.6394 80.8761 26.6394C67.0462 26.6394 55.8348 37.8508 55.8348 51.6807Z" fill="#FFDA32"/>
</g>
<path fill-rule="evenodd" clip-rule="evenodd" d="M292.966 0.191645C292.898 0.252241 292.844 0.324225 292.807 0.403477C292.77 0.482728 292.751 0.567688 292.751 0.653491C292.751 0.739295 292.77 0.824255 292.807 0.903506C292.844 0.982758 292.898 1.05474 292.966 1.11534L301.232 8.48139L292.966 15.8475C292.828 15.9699 292.751 16.1361 292.751 16.3093C292.751 16.4825 292.828 16.6487 292.966 16.7711C293.103 16.8936 293.29 16.9624 293.484 16.9624C293.678 16.9624 293.865 16.8936 294.002 16.7711L302.785 8.94324C302.853 8.88264 302.907 8.81066 302.944 8.73141C302.981 8.65216 303 8.5672 303 8.48139C303 8.39559 302.981 8.31063 302.944 8.23138C302.907 8.15213 302.853 8.08014 302.785 8.01955L294.002 0.191645C293.934 0.130896 293.853 0.0826989 293.765 0.0498133C293.676 0.0169277 293.58 0 293.484 0C293.388 0 293.292 0.0169277 293.204 0.0498133C293.115 0.0826989 293.034 0.130896 292.966 0.191645Z" fill="#1C2B38"/>
<defs>
<filter id="filter0_d_37_544" x="-20.0331" y="14.1188" width="90.1487" height="90.1487" filterUnits="userSpaceOnUse" color-interpolation-filters="sRGB">
<feFlood flood-opacity="0" result="BackgroundImageFix"/>
<feColorMatrix in="SourceAlpha" type="matrix" values="0 0 0 0 0 0 0 0 0 0 0 0 0 0 0 0 0 0 127 0" result="hardAlpha"/>
<feOffset dy="8"/>
<feGaussianBlur stdDeviation="10"/>
<feColorMatrix type="matrix" values="0 0 0 0 1 0 0 0 0 0.854902 0 0 0 0 0.196078 0 0 0 0.5 0"/>
<feBlend mode="normal" in2="BackgroundImageFix" result="effect1_dropShadow_37_544"/>
<feBlend mode="normal" in="SourceGraphic" in2="effect1_dropShadow_37_544" result="shape"/>
</filter>
<filter id="filter1_d_37_544" x="35.8017" y="14.6196" width="90.1487" height="90.1487" filterUnits="userSpaceOnUse" color-interpolation-filters="sRGB">
<feFlood flood-opacity="0" result="BackgroundImageFix"/>
<feColorMatrix in="SourceAlpha" type="matrix" values="0 0 0 0 0 0 0 0 0 0 0 0 0 0 0 0 0 0 127 0" result="hardAlpha"/>
<feOffset dy="8"/>
<feGaussianBlur stdDeviation="10"/>
<feColorMatrix type="matrix" values="0 0 0 0 1 0 0 0 0 0.854902 0 0 0 0 0.196078 0 0 0 0.5 0"/>
<feBlend mode="normal" in2="BackgroundImageFix" result="effect1_dropShadow_37_544"/>
<feBlend mode="normal" in="SourceGraphic" in2="effect1_dropShadow_37_544" result="shape"/>
</filter>
</defs>
</svg>
